<svg width="53" height="46" viewBox="0 0 53 46" fill="none" xmlns="http://www.w3.org/2000/svg">
<path fill-rule="evenodd" clip-rule="evenodd" d="M26.5 0C11.8587 0 0 10.5528 0 23.5818C0 34.0167 7.58562 42.8304 18.1194 45.955C19.4444 46.1613 19.9412 45.4538 19.9412 44.8348C19.9412 44.2747 19.9081 42.4177 19.9081 40.4427C13.25 41.5334 11.5275 38.9983 10.9975 37.6719C10.6994 36.9939 9.4075 34.901 8.28125 34.3409C7.35375 33.8988 6.02875 32.8081 8.24813 32.7786C10.335 32.7492 11.8256 34.4883 12.3225 35.1958C14.7075 38.7625 18.5169 37.7603 20.0406 37.1413C20.2725 35.6085 20.9681 34.5768 21.73 33.9872C15.8337 33.3977 9.6725 31.3637 9.6725 22.3437C9.6725 19.7792 10.6994 17.6568 12.3888 16.0061C12.1237 15.4166 11.1962 12.9994 12.6537 9.75695C12.6537 9.75695 14.8731 9.13793 19.9412 12.1741C22.0612 11.6435 24.3138 11.3782 26.5663 11.3782C28.8188 11.3782 31.0713 11.6435 33.1912 12.1741C38.2594 9.10845 40.4788 9.75695 40.4788 9.75695C41.9363 12.9994 41.0088 15.4166 40.7438 16.0061C42.4331 17.6568 43.46 19.7497 43.46 22.3437C43.46 31.3932 37.2656 33.3977 31.3694 33.9872C32.33 34.7241 33.1581 36.139 33.1581 38.3498C33.1581 41.5039 33.125 44.0389 33.125 44.8348C33.125 45.4538 33.6219 46.1908 34.9469 45.955C45.4144 42.8304 53 33.9872 53 23.5818C53 10.5528 41.1413 0 26.5 0Z" fill="#EEEEEE"/>
</svg>
